<svg xmlns="http://www.w3.org/2000/svg" xmlns:xlink="http://www.w3.org/1999/xlink" width="500" zoomAndPan="magnify" viewBox="0 0 375 374.999991" height="500" preserveAspectRatio="xMidYMid meet" version="1.0"><rect x="-37.5" width="450" fill="#ffffff" y="-37.499999" height="449.999989" fill-opacity="1"/><rect x="-37.5" width="450" fill="#ffffff" y="-37.499999" height="449.999989" fill-opacity="1"/><path fill="#ff735c" d="M 74.828125 307.386719 L 79.074219 311.585938 L 79.5 312.007812 C 92.710938 325.691406 92.566406 347.722656 79.074219 361.21875 C 65.582031 374.710938 43.546875 374.851562 29.863281 361.640625 L 29.441406 361.21875 L 25.195312 357.019531 L 13.636719 345.414062 C 0 331.777344 0 309.460938 13.636719 295.777344 C 27.269531 282.144531 49.632812 282.144531 63.269531 295.777344 Z M 308.9375 115.359375 L 313.042969 111.257812 L 317.757812 106.539062 L 361.023438 63.273438 C 374.660156 49.640625 374.660156 27.324219 361.023438 13.640625 C 347.339844 0.00390625 325.023438 0.00390625 311.390625 13.640625 L 268.125 56.90625 L 263.40625 61.621094 L 259.304688 65.726562 L 234.484375 90.542969 C 220.851562 104.179688 220.851562 126.496094 234.484375 140.179688 L 259.304688 164.996094 L 263.738281 169.382812 L 311.71875 217.363281 C 325.355469 231 347.671875 231 361.355469 217.363281 C 374.988281 203.730469 374.988281 181.367188 361.355469 167.730469 L 313.371094 119.75 Z M 15.617188 13.972656 L 15.617188 13.921875 C 29.25 0.289062 51.617188 0.289062 65.25 13.921875 L 360.695312 309.414062 C 374.375 323.050781 374.375 345.414062 360.695312 359.046875 C 347.058594 372.683594 324.742188 372.683594 311.058594 359.046875 L 15.617188 63.558594 C 1.980469 49.921875 1.980469 27.605469 15.617188 13.972656 Z M 15.191406 155.417969 C 28.828125 141.78125 51.144531 141.78125 64.824219 155.417969 L 98.464844 189.058594 L 171.265625 261.855469 L 219.246094 309.839844 C 232.882812 323.472656 232.882812 345.835938 219.246094 359.472656 C 205.566406 373.105469 183.25 373.105469 169.613281 359.472656 L 121.632812 311.488281 L 48.832031 238.691406 L 15.191406 205.050781 C 1.558594 191.414062 1.558594 169.050781 15.191406 155.417969 Z M 15.191406 155.417969 " fill-opacity="1" fill-rule="evenodd"/></svg>